<?xml version="1.0" encoding="UTF-8"?>
<svg xmlns="http://www.w3.org/2000/svg" xmlns:xlink="http://www.w3.org/1999/xlink" width="20px" height="25px" viewBox="0 0 20 25" version="1.1">
<g id="surface1">
<path style=" stroke:none;fill-rule:evenodd;fill:rgb(0%,0%,0%);fill-opacity:1;" d="M 2.398438 4.75 C 1.078125 4.75 0 5.828125 0 7.148438 L 0 15.699219 C 0 17.019531 1.078125 18.101562 2.398438 18.101562 L 17.601562 18.101562 C 18.921875 18.101562 20 17.019531 20 15.699219 L 20 7.148438 C 20 5.828125 18.921875 4.75 17.601562 4.75 Z M 13.800781 7.601562 C 14.171875 7.601562 14.542969 7.742188 14.824219 8.023438 C 15.386719 8.585938 15.386719 9.511719 14.824219 10.074219 L 10.550781 14.351562 C 9.726562 15.171875 8.371094 15.171875 7.550781 14.351562 L 5.175781 11.976562 C 4.613281 11.414062 4.613281 10.488281 5.175781 9.925781 C 5.738281 9.363281 6.664062 9.363281 7.226562 9.925781 L 9.050781 11.75 L 12.773438 8.023438 C 13.054688 7.742188 13.425781 7.601562 13.800781 7.601562 Z M 13.800781 7.601562 "/>
<path style=" stroke:none;fill-rule:evenodd;fill:rgb(0%,0%,0%);fill-opacity:1;" d="M 2.398438 1.898438 C 1.628906 1.898438 0.921875 2.335938 0.578125 3.027344 L 0.0546875 4.078125 C -0.0703125 4.324219 0.03125 4.625 0.277344 4.746094 C 0.523438 4.871094 0.824219 4.769531 0.945312 4.523438 L 1.472656 3.472656 C 1.648438 3.121094 2.007812 2.898438 2.398438 2.898438 L 17.601562 2.898438 C 17.996094 2.898438 18.355469 3.121094 18.535156 3.472656 L 19.054688 4.492188 C 19.179688 4.738281 19.480469 4.835938 19.726562 4.710938 C 19.972656 4.585938 20.070312 4.28125 19.945312 4.039062 L 19.425781 3.019531 C 19.078125 2.332031 18.371094 1.898438 17.601562 1.898438 Z M 2.398438 1.898438 "/>
</g>
</svg>
